<svg width="375" height="101" viewBox="0 0 375 101" fill="none" xmlns="http://www.w3.org/2000/svg">
<path d="M46.9808 2.39112L78.4462 21.6762L78.4819 21.698C78.5498 21.7396 78.6174 21.781 78.6845 21.8243C79.1981 22.1559 81.2416 23.56 82 25.3654L37.8315 54.5062V73.9334L80.6314 46.0379L75.7013 73.743C75.2706 76.1515 73.9695 78.3171 72.046 79.827L47.8737 98.8016C44.2972 101.609 39.2749 101.635 35.6698 98.8643L10.946 79.8643C9.03238 78.3937 7.72028 76.2798 7.24786 73.9186L37.8315 54.5062L37.5827 33.8337L4.23861 55.8761L0.140309 31.9618C-0.540375 27.9411 1.29579 23.9111 4.77516 21.7893L36.6043 2.37948C39.7917 0.435735 43.7977 0.440229 46.9808 2.39112Z" fill="#0847F7"/>
<path d="M124.72 78.0448C120.4 78.0448 116.507 77.0581 113.04 75.0848C109.627 73.0581 106.907 70.0715 104.88 66.1248C102.907 62.1248 101.92 57.1115 101.92 51.0848C101.92 46.6581 102.48 42.7381 103.6 39.3248C104.773 35.8581 106.453 32.9248 108.64 30.5248C110.88 28.0715 113.627 26.2048 116.88 24.9248C120.133 23.6448 123.893 23.0048 128.16 23.0048C131.36 23.0048 134.267 23.3781 136.88 24.1248C139.493 24.8715 141.76 25.9381 143.68 27.3248C145.6 28.7115 147.093 30.3915 148.16 32.3648C149.28 34.2848 149.893 36.4715 150 38.9248L139.12 42.2848C139.013 40.0448 138.427 38.2048 137.36 36.7648C136.347 35.3248 134.987 34.2581 133.28 33.5648C131.627 32.8181 129.76 32.4448 127.68 32.4448C124.8 32.4448 122.32 33.1115 120.24 34.4448C118.213 35.7248 116.667 37.7248 115.6 40.4448C114.533 43.1115 114 46.4981 114 50.6048C114 53.7515 114.293 56.4715 114.88 58.7648C115.52 61.0048 116.453 62.8715 117.68 64.3648C118.907 65.8581 120.373 66.9781 122.08 67.7248C123.787 68.4181 125.76 68.7648 128 68.7648C130.347 68.7648 132.373 68.3915 134.08 67.6448C135.84 66.8448 137.227 65.6448 138.24 64.0448C139.307 62.3915 139.893 60.3115 140 57.8048H130V49.4848H151.36V59.1648V76.9248H143.36L143.52 63.4048H142.08C141.227 66.6048 140.08 69.2981 138.64 71.4848C137.2 73.6181 135.333 75.2448 133.04 76.3648C130.8 77.4848 128.027 78.0448 124.72 78.0448ZM175.176 78.0448C170.963 78.0448 167.256 77.2181 164.056 75.5648C160.856 73.8581 158.35 71.3781 156.536 68.1248C154.723 64.8181 153.816 60.7115 153.816 55.8048C153.816 50.8981 154.723 46.8181 156.536 43.5648C158.403 40.3115 160.936 37.8848 164.136 36.2848C167.39 34.6315 171.07 33.8048 175.176 33.8048C179.39 33.8048 183.096 34.6315 186.296 36.2848C189.55 37.9381 192.083 40.4181 193.896 43.7248C195.763 46.9781 196.696 51.0581 196.696 55.9648C196.696 60.9248 195.736 65.0581 193.816 68.3648C191.95 71.6181 189.39 74.0448 186.136 75.6448C182.936 77.2448 179.283 78.0448 175.176 78.0448ZM175.576 69.4848C177.656 69.4848 179.39 69.0048 180.776 68.0448C182.216 67.0848 183.283 65.6448 183.976 63.7248C184.723 61.7515 185.096 59.3781 185.096 56.6048C185.096 53.6715 184.696 51.1915 183.896 49.1648C183.15 47.0848 182.03 45.5115 180.536 44.4448C179.043 43.3248 177.15 42.7648 174.856 42.7648C172.883 42.7648 171.176 43.2448 169.736 44.2048C168.296 45.1115 167.203 46.5515 166.456 48.5248C165.71 50.4448 165.336 52.8181 165.336 55.6448C165.336 60.1781 166.243 63.6181 168.056 65.9648C169.87 68.3115 172.376 69.4848 175.576 69.4848ZM206.378 76.9248V24.1248H217.898V76.9248H206.378ZM190.778 33.8048V24.1248H233.498V33.8048H190.778ZM233.88 76.9248V56.6048V34.9248H243.4L243.48 49.2448H245C245.427 45.6715 246.147 42.7648 247.16 40.5248C248.227 38.2848 249.693 36.6315 251.56 35.5648C253.427 34.4981 255.747 33.9648 258.52 33.9648C259 33.9648 259.507 33.9915 260.04 34.0448C260.627 34.0448 261.293 34.1248 262.04 34.2848L261.56 46.5248C260.76 46.1515 259.88 45.8848 258.92 45.7248C257.96 45.5648 257.107 45.4848 256.36 45.4848C254.28 45.4848 252.493 45.9648 251 46.9248C249.507 47.8848 248.28 49.2715 247.32 51.0848C246.413 52.8448 245.8 55.0048 245.48 57.5648V76.9248H233.88ZM278.086 78.0448C273.179 78.0448 269.472 76.3915 266.966 73.0848C264.512 69.7248 263.286 64.6315 263.286 57.8048V34.9248H274.806V56.3648C274.806 60.4715 275.419 63.5381 276.646 65.5648C277.872 67.5381 279.739 68.5248 282.246 68.5248C283.739 68.5248 285.046 68.1515 286.166 67.4048C287.286 66.6581 288.246 65.6181 289.046 64.2848C289.846 62.9515 290.432 61.3781 290.806 59.5648C291.232 57.7515 291.472 55.8048 291.526 53.7248V34.9248H303.046V59.8048V76.9248H293.766L293.686 63.8048H292.246C291.446 67.1115 290.432 69.8315 289.206 71.9648C288.032 74.0448 286.512 75.5915 284.646 76.6048C282.832 77.5648 280.646 78.0448 278.086 78.0448ZM325.611 78.0448C322.785 78.0448 320.225 77.7781 317.931 77.2448C315.638 76.7115 313.665 75.9381 312.011 74.9248C310.358 73.9115 309.025 72.7115 308.011 71.3248C306.998 69.8848 306.331 68.2848 306.011 66.5248L314.811 62.9248C315.025 64.0981 315.611 65.1915 316.571 66.2048C317.531 67.2181 318.811 68.0448 320.411 68.6848C322.065 69.2715 324.038 69.5648 326.331 69.5648C328.785 69.5648 330.678 69.2181 332.011 68.5248C333.345 67.7781 334.011 66.7381 334.011 65.4048C334.011 64.3915 333.638 63.5915 332.891 63.0048C332.145 62.4181 331.051 61.9115 329.611 61.4848C328.171 61.0581 326.438 60.6581 324.411 60.2848C322.438 59.8048 320.411 59.2981 318.331 58.7648C316.305 58.2315 314.411 57.4848 312.651 56.5248C310.945 55.5648 309.531 54.3115 308.411 52.7648C307.345 51.1648 306.811 49.1381 306.811 46.6848C306.811 44.1248 307.505 41.8848 308.891 39.9648C310.278 38.0448 312.305 36.5515 314.971 35.4848C317.638 34.3648 320.891 33.8048 324.731 33.8048C328.198 33.8048 331.238 34.2848 333.851 35.2448C336.465 36.1515 338.598 37.4848 340.251 39.2448C341.958 40.9515 343.105 43.0048 343.691 45.4048L334.331 48.5248C334.118 47.2448 333.585 46.1248 332.731 45.1648C331.931 44.2048 330.838 43.4848 329.451 43.0048C328.118 42.5248 326.545 42.2848 324.731 42.2848C322.438 42.2848 320.651 42.6581 319.371 43.4048C318.145 44.1515 317.531 45.1381 317.531 46.3648C317.531 47.3781 317.931 48.2048 318.731 48.8448C319.585 49.4848 320.758 50.0181 322.251 50.4448C323.745 50.8181 325.505 51.2181 327.531 51.6448C329.665 52.0715 331.745 52.5781 333.771 53.1648C335.798 53.6981 337.611 54.4181 339.211 55.3248C340.865 56.2315 342.171 57.4315 343.131 58.9248C344.091 60.4181 344.571 62.3381 344.571 64.6848C344.571 67.4581 343.825 69.8581 342.331 71.8848C340.838 73.8581 338.678 75.3781 335.851 76.4448C333.025 77.5115 329.611 78.0448 325.611 78.0448ZM363.127 77.8848C358.434 77.8848 354.967 76.6581 352.727 74.2048C350.54 71.6981 349.447 67.7248 349.447 62.2848V43.9648H343.367L343.527 34.9248H347.767C349.42 34.9248 350.647 34.6848 351.447 34.2048C352.247 33.7248 352.727 32.8448 352.887 31.5648L353.927 25.5648H360.487V34.9248H371.127V44.2848H360.487V61.8048C360.487 63.7248 360.94 65.1115 361.847 65.9648C362.754 66.8181 364.14 67.2448 366.007 67.2448C367.02 67.2448 367.98 67.1381 368.887 66.9248C369.847 66.7115 370.674 66.3648 371.367 65.8848V76.6048C369.714 77.1381 368.194 77.4848 366.807 77.6448C365.42 77.8048 364.194 77.8848 363.127 77.8848Z" fill="#0847F7"/>
</svg>
