<svg width="375" height="101" viewBox="0 0 375 101" fill="none" xmlns="http://www.w3.org/2000/svg">
<path d="M46.9808 2.00782L78.4462 21.2929L78.4819 21.3147C78.5498 21.3563 78.6174 21.3977 78.6845 21.441C79.1981 21.7726 81.2416 23.1767 82 24.9821L37.8315 54.1229V73.5501L80.6314 45.6546L75.7013 73.3597C75.2706 75.7682 73.9695 77.9338 72.046 79.4437L47.8737 98.4183C44.2972 101.226 39.2749 101.252 35.6698 98.481L10.946 79.481C9.03238 78.0104 7.72028 75.8965 7.24786 73.5353L37.8315 54.1229L37.5827 33.4504L4.23861 55.4928L0.140309 31.5785C-0.540375 27.5578 1.29579 23.5278 4.77516 21.406L36.6043 1.99618C39.7917 0.0524341 43.7977 0.0569277 46.9808 2.00782Z" fill="white"/>
<path d="M124.72 77.6615C120.4 77.6615 116.507 76.6748 113.04 74.7015C109.627 72.6748 106.907 69.6882 104.88 65.7415C102.907 61.7415 101.92 56.7282 101.92 50.7015C101.92 46.2748 102.48 42.3548 103.6 38.9415C104.773 35.4748 106.453 32.5415 108.64 30.1415C110.88 27.6882 113.627 25.8215 116.88 24.5415C120.133 23.2615 123.893 22.6215 128.16 22.6215C131.36 22.6215 134.267 22.9948 136.88 23.7415C139.493 24.4882 141.76 25.5548 143.68 26.9415C145.6 28.3282 147.093 30.0082 148.16 31.9815C149.28 33.9015 149.893 36.0882 150 38.5415L139.12 41.9015C139.013 39.6615 138.427 37.8215 137.36 36.3815C136.347 34.9415 134.987 33.8748 133.28 33.1815C131.627 32.4348 129.76 32.0615 127.68 32.0615C124.8 32.0615 122.32 32.7282 120.24 34.0615C118.213 35.3415 116.667 37.3415 115.6 40.0615C114.533 42.7282 114 46.1148 114 50.2215C114 53.3682 114.293 56.0882 114.88 58.3815C115.52 60.6215 116.453 62.4882 117.68 63.9815C118.907 65.4748 120.373 66.5948 122.08 67.3415C123.787 68.0348 125.76 68.3815 128 68.3815C130.347 68.3815 132.373 68.0082 134.08 67.2615C135.84 66.4615 137.227 65.2615 138.24 63.6615C139.307 62.0082 139.893 59.9282 140 57.4215H130V49.1015H151.36V58.7815V76.5415H143.36L143.52 63.0215H142.08C141.227 66.2215 140.08 68.9148 138.64 71.1015C137.2 73.2348 135.333 74.8615 133.04 75.9815C130.8 77.1015 128.027 77.6615 124.72 77.6615ZM175.176 77.6615C170.963 77.6615 167.256 76.8348 164.056 75.1815C160.856 73.4748 158.35 70.9948 156.536 67.7415C154.723 64.4348 153.816 60.3282 153.816 55.4215C153.816 50.5148 154.723 46.4348 156.536 43.1815C158.403 39.9282 160.936 37.5015 164.136 35.9015C167.39 34.2482 171.07 33.4215 175.176 33.4215C179.39 33.4215 183.096 34.2482 186.296 35.9015C189.55 37.5548 192.083 40.0348 193.896 43.3415C195.763 46.5948 196.696 50.6748 196.696 55.5815C196.696 60.5415 195.736 64.6748 193.816 67.9815C191.95 71.2348 189.39 73.6615 186.136 75.2615C182.936 76.8615 179.283 77.6615 175.176 77.6615ZM175.576 69.1015C177.656 69.1015 179.39 68.6215 180.776 67.6615C182.216 66.7015 183.283 65.2615 183.976 63.3415C184.723 61.3682 185.096 58.9948 185.096 56.2215C185.096 53.2882 184.696 50.8082 183.896 48.7815C183.15 46.7015 182.03 45.1282 180.536 44.0615C179.043 42.9415 177.15 42.3815 174.856 42.3815C172.883 42.3815 171.176 42.8615 169.736 43.8215C168.296 44.7282 167.203 46.1682 166.456 48.1415C165.71 50.0615 165.336 52.4348 165.336 55.2615C165.336 59.7948 166.243 63.2348 168.056 65.5815C169.87 67.9282 172.376 69.1015 175.576 69.1015ZM206.378 76.5415V23.7415H217.898V76.5415H206.378ZM190.778 33.4215V23.7415H233.498V33.4215H190.778ZM233.88 76.5415V56.2215V34.5415H243.4L243.48 48.8615H245C245.427 45.2882 246.147 42.3815 247.16 40.1415C248.227 37.9015 249.693 36.2482 251.56 35.1815C253.427 34.1148 255.747 33.5815 258.52 33.5815C259 33.5815 259.507 33.6082 260.04 33.6615C260.627 33.6615 261.293 33.7415 262.04 33.9015L261.56 46.1415C260.76 45.7682 259.88 45.5015 258.92 45.3415C257.96 45.1815 257.107 45.1015 256.36 45.1015C254.28 45.1015 252.493 45.5815 251 46.5415C249.507 47.5015 248.28 48.8882 247.32 50.7015C246.413 52.4615 245.8 54.6215 245.48 57.1815V76.5415H233.88ZM278.086 77.6615C273.179 77.6615 269.472 76.0082 266.966 72.7015C264.512 69.3415 263.286 64.2482 263.286 57.4215V34.5415H274.806V55.9815C274.806 60.0882 275.419 63.1548 276.646 65.1815C277.872 67.1548 279.739 68.1415 282.246 68.1415C283.739 68.1415 285.046 67.7682 286.166 67.0215C287.286 66.2748 288.246 65.2348 289.046 63.9015C289.846 62.5682 290.432 60.9948 290.806 59.1815C291.232 57.3682 291.472 55.4215 291.526 53.3415V34.5415H303.046V59.4215V76.5415H293.766L293.686 63.4215H292.246C291.446 66.7282 290.432 69.4482 289.206 71.5815C288.032 73.6615 286.512 75.2082 284.646 76.2215C282.832 77.1815 280.646 77.6615 278.086 77.6615ZM325.611 77.6615C322.785 77.6615 320.225 77.3948 317.931 76.8615C315.638 76.3282 313.665 75.5548 312.011 74.5415C310.358 73.5282 309.025 72.3282 308.011 70.9415C306.998 69.5015 306.331 67.9015 306.011 66.1415L314.811 62.5415C315.025 63.7148 315.611 64.8082 316.571 65.8215C317.531 66.8348 318.811 67.6615 320.411 68.3015C322.065 68.8882 324.038 69.1815 326.331 69.1815C328.785 69.1815 330.678 68.8348 332.011 68.1415C333.345 67.3948 334.011 66.3548 334.011 65.0215C334.011 64.0082 333.638 63.2082 332.891 62.6215C332.145 62.0348 331.051 61.5282 329.611 61.1015C328.171 60.6748 326.438 60.2748 324.411 59.9015C322.438 59.4215 320.411 58.9148 318.331 58.3815C316.305 57.8482 314.411 57.1015 312.651 56.1415C310.945 55.1815 309.531 53.9282 308.411 52.3815C307.345 50.7815 306.811 48.7548 306.811 46.3015C306.811 43.7415 307.505 41.5015 308.891 39.5815C310.278 37.6615 312.305 36.1682 314.971 35.1015C317.638 33.9815 320.891 33.4215 324.731 33.4215C328.198 33.4215 331.238 33.9015 333.851 34.8615C336.465 35.7682 338.598 37.1015 340.251 38.8615C341.958 40.5682 343.105 42.6215 343.691 45.0215L334.331 48.1415C334.118 46.8615 333.585 45.7415 332.731 44.7815C331.931 43.8215 330.838 43.1015 329.451 42.6215C328.118 42.1415 326.545 41.9015 324.731 41.9015C322.438 41.9015 320.651 42.2748 319.371 43.0215C318.145 43.7682 317.531 44.7548 317.531 45.9815C317.531 46.9948 317.931 47.8215 318.731 48.4615C319.585 49.1015 320.758 49.6348 322.251 50.0615C323.745 50.4348 325.505 50.8348 327.531 51.2615C329.665 51.6882 331.745 52.1948 333.771 52.7815C335.798 53.3148 337.611 54.0348 339.211 54.9415C340.865 55.8482 342.171 57.0482 343.131 58.5415C344.091 60.0348 344.571 61.9548 344.571 64.3015C344.571 67.0748 343.825 69.4748 342.331 71.5015C340.838 73.4748 338.678 74.9948 335.851 76.0615C333.025 77.1282 329.611 77.6615 325.611 77.6615ZM363.127 77.5015C358.434 77.5015 354.967 76.2748 352.727 73.8215C350.54 71.3148 349.447 67.3415 349.447 61.9015V43.5815H343.367L343.527 34.5415H347.767C349.42 34.5415 350.647 34.3015 351.447 33.8215C352.247 33.3415 352.727 32.4615 352.887 31.1815L353.927 25.1815H360.487V34.5415H371.127V43.9015H360.487V61.4215C360.487 63.3415 360.94 64.7282 361.847 65.5815C362.754 66.4348 364.14 66.8615 366.007 66.8615C367.02 66.8615 367.98 66.7548 368.887 66.5415C369.847 66.3282 370.674 65.9815 371.367 65.5015V76.2215C369.714 76.7548 368.194 77.1015 366.807 77.2615C365.42 77.4215 364.194 77.5015 363.127 77.5015Z" fill="white"/>
</svg>
