<svg width="214" height="58" viewBox="0 0 214 58" fill="none" xmlns="http://www.w3.org/2000/svg">
<path d="M27.2525 0.850463L45.5744 12.0784C45.5744 12.0784 47.0614 12.9737 47.5663 14.1756L21.9452 31.0772V42.345L46.7724 26.1656L43.9126 42.2345C43.6628 43.6315 42.908 44.8875 41.7922 45.7633L27.7704 56.7685C25.6958 58.3968 22.7825 58.4118 20.6912 56.8049L6.3495 45.7849C5.23948 44.932 4.47836 43.7059 4.20432 42.3364L21.9452 31.0772L21.8009 19.0872L2.45872 31.8717L0.08139 18.0014C-0.313459 15.6694 0.751658 13.3321 2.76996 12.1014L21.2333 0.84371C23.0823 -0.283661 25.406 -0.281054 27.2525 0.850463Z" fill="white"/>
<path d="M70.0716 44.9624C67.5658 44.9624 65.3075 44.3901 63.2967 43.2455C61.3168 42.07 59.7391 40.3376 58.5636 38.0484C57.419 35.7282 56.8467 32.8203 56.8467 29.3246C56.8467 26.757 57.1715 24.4832 57.8211 22.5033C58.5017 20.4925 59.4762 18.7911 60.7445 17.399C62.0438 15.976 63.637 14.8932 65.5241 14.1508C67.4111 13.4083 69.5921 13.0371 72.0669 13.0371C73.923 13.0371 75.609 13.2537 77.1248 13.6868C78.6407 14.1198 79.9554 14.7386 81.0691 15.5429C82.1828 16.3472 83.049 17.3217 83.6677 18.4663C84.3173 19.5799 84.6731 20.8483 84.7349 22.2713L78.4241 24.2203C78.3622 22.921 78.022 21.8537 77.4033 21.0184C76.8155 20.1832 76.0266 19.5645 75.0367 19.1623C74.0777 18.7292 72.995 18.5127 71.7885 18.5127C70.118 18.5127 68.6795 18.8994 67.473 19.6728C66.2974 20.4152 65.4003 21.5753 64.7816 23.153C64.1629 24.6998 63.8535 26.6642 63.8535 29.0462C63.8535 30.8714 64.0237 32.4491 64.364 33.7793C64.7352 35.0786 65.2766 36.1613 65.9881 37.0275C66.6996 37.8937 67.5503 38.5433 68.5403 38.9764C69.5302 39.3786 70.6748 39.5797 71.9741 39.5797C73.3352 39.5797 74.5108 39.3631 75.5007 38.93C76.5216 38.466 77.3259 37.77 77.9137 36.8419C78.5324 35.8829 78.8727 34.6764 78.9346 33.2225H73.1342V28.3965H85.5238V44.3128H80.8835L80.9763 36.4707H80.141C79.6461 38.3268 78.981 39.889 78.1457 41.1574C77.3104 42.3948 76.2277 43.3383 74.8975 43.988C73.5982 44.6376 71.9896 44.9624 70.0716 44.9624Z" fill="white"/>
<path d="M99.3381 44.9624C96.8942 44.9624 94.7442 44.4829 92.8881 43.5239C91.032 42.534 89.578 41.0955 88.5262 39.2085C87.4744 37.2905 86.9485 34.9084 86.9485 32.0624C86.9485 29.2163 87.4744 26.8498 88.5262 24.9627C89.609 23.0756 91.0784 21.6681 92.9345 20.74C94.8216 19.781 96.9561 19.3015 99.3381 19.3015C101.782 19.3015 103.932 19.781 105.788 20.74C107.675 21.699 109.145 23.1375 110.196 25.0555C111.279 26.9426 111.821 29.3091 111.821 32.1552C111.821 35.0322 111.264 37.4297 110.15 39.3477C109.067 41.2347 107.582 42.6423 105.695 43.5703C103.839 44.4984 101.72 44.9624 99.3381 44.9624ZM99.5702 39.9973C100.777 39.9973 101.782 39.7189 102.586 39.1621C103.422 38.6052 104.04 37.77 104.442 36.6563C104.876 35.5117 105.092 34.1351 105.092 32.5264C105.092 30.825 104.86 29.3865 104.396 28.2109C103.963 27.0044 103.313 26.0918 102.447 25.4731C101.581 24.8235 100.483 24.4987 99.1525 24.4987C98.0079 24.4987 97.018 24.7771 96.1827 25.3339C95.3475 25.8598 94.7133 26.6951 94.2802 27.8397C93.8471 28.9534 93.6306 30.33 93.6306 31.9696C93.6306 34.5991 94.1565 36.5944 95.2083 37.9556C96.2601 39.3167 97.714 39.9973 99.5702 39.9973Z" fill="white"/>
<path d="M117.436 44.3128V13.6868H124.118V44.3128H117.436ZM108.387 19.3015V13.6868H133.167V19.3015H108.387Z" fill="white"/>
<path d="M133.389 44.3128V19.9512H138.911L138.957 28.2573H139.839C140.086 26.1847 140.504 24.4987 141.091 23.1994C141.71 21.9001 142.561 20.9411 143.644 20.3224C144.726 19.7037 146.072 19.3943 147.681 19.3943C147.959 19.3943 148.253 19.4098 148.562 19.4407C148.903 19.4407 149.289 19.4871 149.722 19.5799L149.444 26.6796C148.98 26.4631 148.47 26.3084 147.913 26.2156C147.356 26.1228 146.861 26.0764 146.428 26.0764C145.221 26.0764 144.185 26.3548 143.319 26.9116C142.453 27.4685 141.741 28.2728 141.184 29.3246C140.658 30.3455 140.303 31.5983 140.117 33.0832V44.3128H133.389Z" fill="white"/>
<path d="M159.03 44.9624C156.184 44.9624 154.033 44.0034 152.58 42.0854C151.157 40.1365 150.445 37.1822 150.445 33.2225V19.9512H157.127V32.3872C157.127 34.7692 157.483 36.548 158.194 37.7236C158.906 38.8682 159.989 39.4405 161.443 39.4405C162.309 39.4405 163.067 39.2239 163.716 38.7908C164.366 38.3577 164.923 37.7545 165.387 36.9811C165.851 36.2077 166.191 35.2951 166.408 34.2433C166.655 33.1915 166.794 32.0624 166.825 30.8559V19.9512H173.507V44.3128H168.125L168.078 36.7027H167.243C166.779 38.6207 166.191 40.1984 165.48 41.4358C164.799 42.6423 163.917 43.5394 162.835 44.1272C161.783 44.684 160.514 44.9624 159.03 44.9624Z" fill="white"/>
<path d="M186.596 44.9624C184.957 44.9624 183.472 44.8078 182.142 44.4984C180.811 44.1891 179.667 43.7405 178.708 43.1527C177.749 42.5649 176.975 41.8689 176.388 41.0646C175.8 40.2293 175.413 39.3013 175.228 38.2804L180.332 36.1923C180.456 36.8728 180.796 37.507 181.353 38.0948C181.91 38.6826 182.652 39.1621 183.58 39.5333C184.539 39.8736 185.684 40.0437 187.014 40.0437C188.437 40.0437 189.535 39.8426 190.309 39.4405C191.082 39.0074 191.469 38.4041 191.469 37.6308C191.469 37.043 191.252 36.5789 190.819 36.2387C190.386 35.8984 189.752 35.6045 188.916 35.357C188.081 35.1095 187.076 34.8775 185.9 34.661C184.756 34.3825 183.58 34.0886 182.374 33.7793C181.198 33.4699 180.1 33.0368 179.079 32.48C178.089 31.9232 177.269 31.1962 176.62 30.2991C176.001 29.371 175.692 28.1955 175.692 26.7724C175.692 25.2875 176.094 23.9882 176.898 22.8746C177.702 21.7609 178.878 20.8947 180.425 20.276C181.971 19.6263 183.858 19.3015 186.086 19.3015C188.097 19.3015 189.86 19.5799 191.376 20.1368C192.892 20.6627 194.129 21.4361 195.088 22.4569C196.078 23.4469 196.743 24.6379 197.083 26.03L191.654 27.8397C191.53 27.0972 191.221 26.4476 190.726 25.8908C190.262 25.3339 189.628 24.9163 188.824 24.6379C188.05 24.3595 187.138 24.2203 186.086 24.2203C184.756 24.2203 183.719 24.4368 182.977 24.8699C182.265 25.303 181.91 25.8753 181.91 26.5868C181.91 27.1746 182.142 27.6541 182.606 28.0253C183.101 28.3965 183.781 28.7059 184.647 28.9534C185.514 29.1699 186.534 29.4019 187.71 29.6494C188.947 29.8969 190.154 30.1908 191.329 30.5311C192.505 30.8404 193.557 31.2581 194.485 31.784C195.444 32.3099 196.202 33.0059 196.759 33.8721C197.315 34.7383 197.594 35.852 197.594 37.2131C197.594 38.8218 197.161 40.2139 196.295 41.3894C195.428 42.534 194.175 43.4157 192.536 44.0344C190.896 44.6531 188.916 44.9624 186.596 44.9624Z" fill="white"/>
<path d="M208.357 44.8696C205.634 44.8696 203.624 44.1581 202.324 42.7351C201.056 41.2811 200.422 38.9764 200.422 35.821V25.1947H196.895L196.988 19.9512H199.447C200.406 19.9512 201.118 19.812 201.582 19.5335C202.046 19.2551 202.324 18.7447 202.417 18.0022L203.02 14.522H206.825V19.9512H212.997V25.3803H206.825V35.5426C206.825 36.6563 207.088 37.4606 207.614 37.9556C208.14 38.4505 208.945 38.698 210.027 38.698C210.615 38.698 211.172 38.6362 211.698 38.5124C212.255 38.3887 212.734 38.1876 213.136 37.9092V44.1272C212.177 44.4365 211.296 44.6376 210.491 44.7304C209.687 44.8232 208.975 44.8696 208.357 44.8696Z" fill="white"/>
</svg>
